<svg version="1" xmlns="http://www.w3.org/2000/svg" width="1333.333" height="1333.333" viewBox="0 0 1000.000000 1000.000000"><path d="M249.7 41.6c-.1.1-4.5.4-9.7.8-50.1 3.2-94.6 39-109.4 87.8-5.9 19.4-5.6-7-5.3 372.8.3 381.6-.2 349.2 5.7 368.5 12.5 40.3 46.9 72.3 89.5 83.3 4.6 1.2 8.3 1.8 17.5 2.8 8.3.9 517.6 1 525 0 24.8-3 45.9-11.6 64.5-26.3 20.5-16.2 36.7-40.8 43.1-65.3 4.4-16.9 4.3-9.4 4.1-261.5l-.2-240-3.3-7c-3.2-6.6-9.9-13.5-157.7-161.4L559 41.6H404.4c-85-.1-154.6 0-154.7 0zM500 252.5v128c.3 2.8 3.7 11.9 5.8 15.5 4.7 8.2 14.7 16.3 22.8 18.5 1.6.5 3.6 1 4.4 1.3.8.2 58.7.6 128.5.7 69.9.2 127.7.3 128.5.4 1.4.1 1.6 21.6 1.5 212.3-.1 201.9-.2 212.5-1.9 217.3-4.8 13.3-15 22.9-28.7 26.9-4.7 1.4-31.8 1.6-261 1.6-253.3 0-255.7 0-262.2-2-12.9-4-24.1-15.3-27.8-28.1-1.8-6.1-2.2-679.8-.4-687.4 3.5-15.1 14.9-27 29.5-30.9 4.7-1.3 24.1-1.5 133.3-1.5L500 125v127.5zm158.2 6.2c40.6 40.6 73.8 74 73.8 74.3 0 .4-145.7.5-148.1.1-.7-.1-.7-148.1 0-148.1.3 0 33.8 33.2 74.3 73.7z"/></svg>