<?xml version="1.0" encoding="UTF-8" standalone="no"?>
<svg
   xmlns:dc="http://purl.org/dc/elements/1.1/"
   xmlns:cc="http://creativecommons.org/ns#"
   xmlns:rdf="http://www.w3.org/1999/02/22-rdf-syntax-ns#"
   xmlns:svg="http://www.w3.org/2000/svg"
   xmlns="http://www.w3.org/2000/svg"
   xmlns:sodipodi="http://sodipodi.sourceforge.net/DTD/sodipodi-0.dtd"
   xmlns:inkscape="http://www.inkscape.org/namespaces/inkscape"
   inkscape:version="1.0 (4035a4fb49, 2020-05-01)"
   height="23.402456"
   width="23.99754"
   sodipodi:docname="github.svg"
   id="svg3"
   version="1.1"
   viewBox="0 0 23.99754 23.402456">
  <metadata
     id="metadata9">
    <rdf:RDF>
      <cc:Work
         rdf:about="">
        <dc:format>image/svg+xml</dc:format>
        <dc:type
           rdf:resource="http://purl.org/dc/dcmitype/StillImage" />
        <dc:title></dc:title>
      </cc:Work>
    </rdf:RDF>
  </metadata>
  <defs
     id="defs7" />
  <sodipodi:namedview
     inkscape:current-layer="svg3"
     inkscape:window-maximized="1"
     inkscape:window-y="0"
     inkscape:window-x="0"
     inkscape:cy="26.347001"
     inkscape:cx="28.093063"
     inkscape:zoom="11.484019"
     fit-margin-bottom="0"
     fit-margin-right="0"
     fit-margin-left="0"
     fit-margin-top="0"
     showgrid="false"
     id="namedview5"
     inkscape:window-height="1021"
     inkscape:window-width="1920"
     inkscape:pageshadow="2"
     inkscape:pageopacity="0"
     guidetolerance="10"
     gridtolerance="10"
     objecttolerance="10"
     borderopacity="1"
     bordercolor="#666666"
     pagecolor="#ffffff" />
  <path
     fill-rule="evenodd"
     fill="#262626"
     d="m 23.99754,11.998197 a 12.00154,12.00154 0 0 1 -8.19942,11.38223 c -0.609,0.11718 -0.82514,-0.25609 -0.82514,-0.57691 0,-0.39338 0.01473,-1.68736 0.01473,-3.29126 a 2.86307,2.86307 0 0 0 -0.81468,-2.22177 c 2.6733,-0.297 5.479,-1.31121 5.479,-5.92017 a 4.629,4.629 0 0 0 -1.23349,-3.2194096 4.30829,4.30829 0 0 0 -0.11941,-3.17511 c 0,0 -1.0057,-0.3226 -3.29666,1.2299 a 11.37652,11.37652 0 0 0 -6.00842,0 c -2.29239,-1.5525 -3.29993,-1.2299 -3.29993,-1.2299 a 4.3144,4.3144 0 0 0 -0.11764,3.17511 4.6369,4.6369 0 0 0 -1.23517,3.2193696 c 0,4.59747 2.80132,5.62674 5.466,5.92952 a 2.56331,2.56331 0 0 0 -0.76186,1.60391 2.55528,2.55528 0 0 1 -3.49232,-0.99687 2.52064,2.52064 0 0 0 -1.83807,-1.23639 c 0,0 -1.172,-0.01509 -0.08243,0.7293 a 3.1772,3.1772 0 0 1 1.33234,1.755 c 0,0 0.70433,2.33328 4.04232,1.60826 0.0058,1.00121 0.01621,1.7557 0.01621,2.04051 0,0.31795 -0.219,0.68834 -0.819,0.57831 a 11.99877,11.99877 0 1 1 15.79304,-11.38363 z"
     id="github" />
</svg>
